# xmcd
#
# Track frame offsets:
#	150
#	12174
#	23829
#	44828
#	56915
#	67500
#	78471
#	90971
#	104952
#	114240
#	124920
#	136182
#	148600
#	159677
#	171097
#	183598
#	204939
#
# Disc length: 2853 seconds
#
# Revision: 0
# Processed by: cddbd v1.5.2PL0 Copyright (c) Steve Scherf et al.
# Submitted via: EZCDAudioConverter 7.1.5.1
#
DISCID=e80b2311
DTITLE=Various Artist - '60s Country - Then and Only Then
DYEAR=2018
DGENRE=Country
TTITLE0=Make the World Go Away - Eddie Arnold
TTITLE1=Welcome to My World - Jim Reeves
TTITLE2=El Paso - Marty Robbins
TTITLE3=Stand By Your Man - Tammy Wynette
TTITLE4=\nDaddy Sang Bass - Johnny Cash
TTITLE5=Then and Only Then - Connie Smith
TTITLE6=One More Time - Ray Price
TTITLE7=Orange Blossom Special - Johnny Cash
TTITLE8=The Ballad of Jed Clampett - Lester Flatt, Earl Scruggs and the Foggy Mo
TTITLE8=untain Boys
TTITLE9=Only Daddy That’ll Walk the Line - Waylon Jennings
TTITLE10=Holding On to Nothin’ - Porter Wagoner and Dolly Parton
TTITLE11=Jackson - Johnny Cash and June Carter Cash
TTITLE12=Last Date - Floyd Cramer
TTITLE13=Adios Amigo - Jim Reeves
TTITLE14=Four Strong Winds - Bobby Bare
TTITLE15=Night Life - Ray Price
TTITLE16=Yakety Axe - Chet Atkins
EXTD=
EXTT0=
EXTT1=
EXTT2=
EXTT3=
EXTT4=
EXTT5=
EXTT6=
EXTT7=
EXTT8=
EXTT9=
EXTT10=
EXTT11=
EXTT12=
EXTT13=
EXTT14=
EXTT15=
EXTT16=
PLAYORDER=
